<?xml version="1.0" encoding="UTF-8"?>
<svg version="1.1" xmlns="http://www.w3.org/2000/svg" width="600" height="600">
<path d="M0 0 C1.02545929 -0.00133942 2.05091858 -0.00267883 3.10745239 -0.00405884 C18.21282613 0.00022411 32.85869972 0.50866925 47.75 3.25 C49.07666746 3.46969083 50.40348107 3.68850171 51.73046875 3.90625 C91.15073173 11.0044324 130.26683274 27.35530454 161.75 52.25 C163.34692179 53.44176218 164.94384936 54.63351666 166.54101562 55.82495117 C173.53218707 61.07973291 179.90597598 66.8663949 186.24560547 72.88134766 C187.82400778 74.31733002 189.46313525 75.64736417 191.12890625 76.98046875 C191.99386719 77.72941406 192.85882813 78.47835937 193.75 79.25 C193.75 79.91 193.75 80.57 193.75 81.25 C194.74 81.58 195.73 81.91 196.75 82.25 C198.18802182 83.8410643 199.55325335 85.4986015 200.875 87.1875 C203.81948634 90.89063016 206.81387774 94.43702271 210.0625 97.875 C248.22871089 139.95739601 271.66440309 202.79426153 271.953125 259.26171875 C271.96013931 260.18450119 271.96715363 261.10728363 271.97438049 262.05802917 C271.99178136 265.01790304 271.99823233 267.97757687 272 270.9375 C272.00101212 272.45407196 272.00101212 272.45407196 272.00204468 274.00128174 C271.98651486 288.62746641 271.60685044 302.86262247 268.75 317.25 C268.49259033 318.62526855 268.49259033 318.62526855 268.22998047 320.02832031 C262.28195188 351.44284126 251.09269139 380.16401647 235.80639648 408.17895508 C234.63305315 410.35189615 234.63305315 410.35189615 233.75 413.25 C233.09 413.25 232.43 413.25 231.75 413.25 C231.688125 413.91 231.62625 414.57 231.5625 415.25 C230.62573778 418.70881436 229.08215781 421.05182401 227.12890625 424.0234375 C225.71246065 426.31061594 224.57785057 428.62717506 223.4375 431.0625 C220.58507161 436.90361929 216.99467807 442.32130096 212.75 447.25 C212.09 447.25 211.43 447.25 210.75 447.25 C210.48316406 447.83394531 210.21632813 448.41789062 209.94140625 449.01953125 C206.0653496 456.27601764 198.86818662 462.86699263 192.75 468.25 C192.09 468.25 191.43 468.25 190.75 468.25 C190.42 469.24 190.09 470.23 189.75 471.25 C187.31640625 473.29296875 187.31640625 473.29296875 184.3125 475.4375 C183.32378906 476.15292969 182.33507812 476.86835938 181.31640625 477.60546875 C178.75 479.25 178.75 479.25 176.75 479.25 C176.42 480.24 176.09 481.23 175.75 482.25 C175.09 482.25 174.43 482.25 173.75 482.25 C173.42 483.24 173.09 484.23 172.75 485.25 C171.0703125 486.609375 171.0703125 486.609375 168.875 488 C168.05515625 488.52464844 167.2353125 489.04929687 166.390625 489.58984375 C165.08351563 490.41162109 165.08351563 490.41162109 163.75 491.25 C162.91984375 491.78753906 162.0896875 492.32507813 161.234375 492.87890625 C158.42114313 494.6940304 155.59010015 496.47719863 152.75 498.25 C151.91057861 498.7744873 151.91057861 498.7744873 151.05419922 499.30957031 C130.87178777 511.85494396 109.48095922 521.42680277 86.82470703 528.58056641 C85.43457416 529.02911246 84.04998053 529.49517948 82.67138672 529.97802734 C58.04001073 538.5752981 31.35283084 541.57675883 5.40039062 542.18261719 C2.98892668 542.24392559 0.58175202 542.34058123 -1.828125 542.4453125 C-23.92984325 543.17324265 -46.56396792 538.9703253 -67.96337891 533.80078125 C-69.97485726 533.31627397 -71.99287214 532.85907541 -74.01171875 532.40625 C-79.34390787 531.17523018 -84.09917286 529.57516883 -89.03515625 527.21875 C-92.13613949 525.86241165 -95.32645586 525.00620292 -98.59765625 524.15625 C-101.55398362 523.1461352 -104.20574439 521.82398556 -106.98168945 520.40039062 C-109.42788168 519.15978598 -111.89777605 517.98160689 -114.37890625 516.8125 C-115.26900391 516.39226563 -116.15910156 515.97203125 -117.07617188 515.5390625 C-118.90358804 514.67818122 -120.73171675 513.81881091 -122.56054688 512.9609375 C-128.87723096 509.97436895 -135.14963406 506.97884775 -140.75 502.75 C-145.0525678 499.61210939 -149.52811395 497.04206758 -154.375 494.8125 C-157.61393603 493.05220868 -159.72671324 490.91346936 -162.25 488.25 C-162.91 487.92 -163.57 487.59 -164.25 487.25 C-164.25 486.59 -164.25 485.93 -164.25 485.25 C-165.08337891 484.87875 -165.08337891 484.87875 -165.93359375 484.5 C-168.67366495 483.02137811 -170.90623955 481.22436755 -173.3125 479.25 C-175.91686965 477.11950813 -178.44819406 475.11787063 -181.25 473.25 C-181.25 472.59 -181.25 471.93 -181.25 471.25 C-181.8469165 470.97833008 -182.44383301 470.70666016 -183.05883789 470.42675781 C-185.20841458 469.27233334 -186.60046255 468.1442756 -188.30859375 466.421875 C-188.85966797 465.86886719 -189.41074219 465.31585938 -189.97851562 464.74609375 C-190.54248047 464.16988281 -191.10644531 463.59367187 -191.6875 463 C-192.24759766 462.43925781 -192.80769531 461.87851562 -193.38476562 461.30078125 C-196.88311092 457.7656972 -200.09864134 454.09610263 -203.25 450.25 C-203.91 449.59 -204.57 448.93 -205.25 448.25 C-206.26775429 446.97227586 -207.26595347 445.67886165 -208.25 444.375 C-209.0234375 443.35792969 -209.0234375 443.35792969 -209.8125 442.3203125 C-211.17514236 440.35781127 -212.24169352 438.41204178 -213.25 436.25 C-213.91 436.25 -214.57 436.25 -215.25 436.25 C-216.45507812 434.81298828 -216.45507812 434.81298828 -217.78125 432.8203125 C-218.26207031 432.10746094 -218.74289063 431.39460938 -219.23828125 430.66015625 C-219.73714844 429.90605469 -220.23601562 429.15195312 -220.75 428.375 C-221.73774678 426.89720831 -222.72725558 425.42059241 -223.71875 423.9453125 C-224.15638672 423.28547363 -224.59402344 422.62563477 -225.04492188 421.94580078 C-226.27789165 420.1109125 -226.27789165 420.1109125 -228.25 418.25 C-236.62434317 404.64169235 -244.78219621 390.26731339 -250.17578125 375.203125 C-251.24746569 372.25696705 -252.47814613 369.42710625 -253.75 366.5625 C-256.79588218 359.35615414 -258.71445823 351.85565582 -260.70068359 344.30541992 C-261.22226101 342.35379314 -261.77626631 340.41091772 -262.33203125 338.46875 C-264.60269298 330.50694036 -265.94127612 322.41607848 -267.25 314.25 C-267.50194931 312.76160775 -267.75459923 311.27333399 -268.0078125 309.78515625 C-269.65814478 299.94640521 -270.91910501 290.23701235 -271.25 280.25 C-271.27723145 279.54423828 -271.30446289 278.83847656 -271.33251953 278.11132812 C-273.36910035 219.0376756 -253.50493632 158.47968815 -218.60449219 111.10107422 C-217.31080078 109.33309147 -216.04524312 107.54867045 -214.7890625 105.75390625 C-214.07492188 104.74199219 -213.36078125 103.73007813 -212.625 102.6875 C-212.01398438 101.81996094 -211.40296875 100.95242187 -210.7734375 100.05859375 C-210.01933594 99.16333984 -210.01933594 99.16333984 -209.25 98.25 C-208.59 98.25 -207.93 98.25 -207.25 98.25 C-207.01796875 97.70085937 -206.7859375 97.15171875 -206.546875 96.5859375 C-198.69860317 82.44959245 -181.85594914 68.98432366 -169.25 59.25 C-167.91516608 58.19816853 -166.58054657 57.14606493 -165.24609375 56.09375 C-156.87593754 49.54220562 -148.4683266 43.56476361 -139.25 38.25 C-138.14398438 37.59644531 -137.03796875 36.94289062 -135.8984375 36.26953125 C-94.09269801 11.73034647 -48.3458957 0.03719918 0 0 Z " fill="#07405F" transform="translate(299.25,28.75)"/>
<path d="M0 0 C0.95588672 -0.00367669 1.91177343 -0.00735338 2.89662641 -0.01114148 C6.08436437 -0.02211235 9.27206966 -0.02601089 12.45982361 -0.02983093 C14.75190838 -0.03610054 17.04399215 -0.04274778 19.33607483 -0.04974365 C26.84989217 -0.07072646 34.36370958 -0.08114035 41.87754822 -0.09111023 C44.47006681 -0.09515988 47.0625853 -0.09927687 49.65510368 -0.10346031 C60.44268211 -0.12032001 71.23025688 -0.13495466 82.01784611 -0.14220905 C84.81181909 -0.14411861 87.60579206 -0.14603899 90.39976501 -0.147995 C91.09410082 -0.14847874 91.78843662 -0.14896248 92.5038129 -0.14946087 C103.74174466 -0.15775436 114.97956975 -0.18308428 126.21745498 -0.21557567 C137.78120161 -0.24873407 149.34488866 -0.26633349 160.90868276 -0.26985329 C167.39083366 -0.27219813 173.87281569 -0.28108527 180.35492134 -0.30631447 C186.45762435 -0.32968452 192.56004833 -0.33379245 198.66278458 -0.32355309 C200.8931172 -0.3230598 203.123464 -0.32931854 205.35375404 -0.34310913 C217.66830563 -0.41494764 228.50288539 0.13343111 240.21739197 4.14717102 C241.00667115 4.39158275 241.79595034 4.63599447 242.60914707 4.88781261 C270.33221627 13.64317686 293.11398605 34.0845237 306.46739197 59.70967102 C319.42577383 85.67821648 320.44587634 114.63464576 312.21739197 142.14717102 C311.85645447 143.36533508 311.49551697 144.58349915 311.12364197 145.83857727 C302.0111971 172.36230072 280.06001504 194.25570101 255.30088806 206.39839172 C236.08695201 215.45468568 217.2193827 217.60277986 196.26011658 217.51948547 C194.09492824 217.5219188 191.92974103 217.52564334 189.76455688 217.5305481 C183.9299115 217.5398861 178.09543596 217.53059198 172.26080394 217.51721597 C166.12862194 217.50582474 159.99644737 217.51001484 153.86425781 217.51196289 C143.57137813 217.51284339 133.27856462 217.50181618 122.98570251 217.48335266 C111.11706995 217.46218324 99.24853419 217.45867789 87.37988657 217.46491462 C75.92055808 217.47062599 64.46126339 217.46494211 53.00193977 217.45374107 C48.1438846 217.44911912 43.28585026 217.44821075 38.4277935 217.45032692 C32.69930034 217.45222237 26.97090452 217.44401004 21.24243355 217.42826653 C19.15078764 217.42405511 17.05913179 217.4231517 14.96748352 217.42595673 C0.22678927 217.44271388 -14.21691927 217.17952447 -28.34510803 212.45967102 C-29.14102356 212.19984436 -29.93693909 211.9400177 -30.75697327 211.6723175 C-46.71306788 206.27886599 -59.57667986 197.62559354 -71.78260803 186.14717102 C-72.43745178 185.57998352 -73.09229553 185.01279602 -73.76698303 184.42842102 C-81.24864727 177.62690808 -86.46193772 168.66320493 -91.78260803 160.14717102 C-92.1640094 159.53784729 -92.54541077 158.92852356 -92.93836975 158.30073547 C-95.42487692 154.15869804 -97.00160099 150.04306897 -98.40760803 145.45967102 C-99.84827181 140.67268649 -99.84827181 140.67268649 -101.86073303 136.11201477 C-110.64053096 117.39914038 -105.01112422 89.18554168 -98.58338928 70.69795227 C-97.43274358 67.77355372 -96.16557355 64.96857918 -94.78260803 62.14717102 C-94.28116272 61.10560852 -93.77971741 60.06404602 -93.26307678 58.99092102 C-82.50156282 37.82072962 -63.99161993 18.40719971 -41.78260803 9.14717102 C-40.46260803 9.14717102 -39.14260803 9.14717102 -37.78260803 9.14717102 C-37.78260803 8.48717102 -37.78260803 7.82717102 -37.78260803 7.14717102 C-34.61926504 6.15704466 -31.45142447 5.18212382 -28.28260803 4.20967102 C-26.95229553 3.79298157 -26.95229553 3.79298157 -25.59510803 3.36787415 C-24.71854553 3.10039368 -23.84198303 2.83291321 -22.93885803 2.55732727 C-22.14286194 2.3111969 -21.34686584 2.06506653 -20.52674866 1.81147766 C-13.72114299 0.16396405 -6.96262816 -0.0014573 0 0 Z " fill="#26DFCA" transform="translate(193.78260803222656,191.8528289794922)"/>
<path d="M0 0 C1.5056301 -0.01143435 3.01122248 -0.03174815 4.51660156 -0.06152344 C15.34877607 -0.27504169 24.5099052 0.94306242 34.8449707 4.29516602 C35.64604248 4.54145752 36.44711426 4.78774902 37.27246094 5.04150391 C64.9791301 13.86873495 87.7298404 34.21001964 101.0949707 59.85766602 C114.05335256 85.82621148 115.07345508 114.78264076 106.8449707 142.29516602 C106.30356445 144.12241211 106.30356445 144.12241211 105.7512207 145.98657227 C96.63026976 172.53505447 74.68749248 194.34380451 49.94384766 206.54418945 C43.12006761 209.77370217 36.11453283 212.25874145 28.8449707 214.29516602 C28.21969482 214.48135498 27.59441895 214.66754395 26.95019531 214.859375 C19.50917337 216.82934067 11.92227602 216.64877629 4.2824707 216.60766602 C3.56809845 216.60551086 2.8537262 216.60335571 2.1177063 216.60113525 C-28.4510732 216.45272022 -53.8917769 205.51343425 -75.71166992 183.80883789 C-96.63902607 161.86201649 -106.00900384 133.28849383 -105.61035156 103.38085938 C-105.36245456 95.35178454 -104.53211311 88.00151839 -102.1550293 80.29516602 C-101.8147168 79.09375977 -101.4744043 77.89235352 -101.1237793 76.65454102 C-92.51211596 48.37570059 -72.91649268 25.58572904 -47.1550293 11.29516602 C-32.17742877 3.37348712 -16.84019917 0.08858505 0 0 Z " fill="#FCFDFD" transform="translate(399.155029296875,191.704833984375)"/>
<path d="M0 0 C1.14275391 -0.020625 2.28550781 -0.04125 3.46289062 -0.0625 C13.57386861 -0.10874804 21.62369674 1.93724951 30.5 6.6875 C31.60472656 7.26371094 32.70945312 7.83992187 33.84765625 8.43359375 C36.4375 10.25 36.4375 10.25 37.30859375 12.47265625 C37.37240234 13.35244141 37.37240234 13.35244141 37.4375 14.25 C36.7775 14.25 36.1175 14.25 35.4375 14.25 C35.17195313 15.10851562 34.90640625 15.96703125 34.6328125 16.8515625 C33.42726199 20.27910808 31.96505614 23.39173798 30.3125 26.625 C29.77367187 27.68460937 29.23484375 28.74421875 28.6796875 29.8359375 C28.26976562 30.63257813 27.85984375 31.42921875 27.4375 32.25 C23.88141931 31.72317323 20.64617144 31.09966455 17.3125 29.75 C9.44982332 26.59229852 0.22928925 25.73592596 -8.04296875 27.8984375 C-10.07996148 28.84984728 -11.76288349 29.90326711 -13.5625 31.25 C-14.25988281 31.75917969 -14.95726562 32.26835937 -15.67578125 32.79296875 C-21.2275525 37.22829605 -24.81952167 41.66476229 -25.97265625 48.78125 C-26.45213421 57.33808752 -23.56583272 65.02218478 -18.63671875 71.9609375 C-16.6661456 74.13561898 -15.25167977 75.27248232 -12.625 76.5 C-11.65240234 76.97179687 -11.65240234 76.97179687 -10.66015625 77.453125 C0.20893689 81.58216597 10.87704357 79.27292842 21.3203125 75.34375 C24.4375 74.25 24.4375 74.25 27.4375 74.25 C28.98179765 76.96651314 30.49351606 79.69986276 32 82.4375 C32.43763672 83.20642578 32.87527344 83.97535156 33.32617188 84.76757812 C36.41984466 90.4433715 36.41984466 90.4433715 36.5 94.10546875 C33.89310494 99.36717974 26.67559481 101.87905364 21.4375 104 C4.52513847 109.67101012 -12.64572908 108.50374714 -28.64453125 100.7578125 C-31.05459481 99.36308306 -33.31043097 97.88506382 -35.5625 96.25 C-36.59375 95.528125 -37.625 94.80625 -38.6875 94.0625 C-49.51990042 84.58800733 -55.28766193 70.94096876 -56.95703125 56.94140625 C-57.45649413 42.1240076 -53.07305648 29.04488955 -43.4609375 17.7890625 C-35.50006534 9.32184512 -26.50521097 4.80046363 -15.5625 1.25 C-10.52495641 -0.4291812 -5.27419687 0.02324715 0 0 Z " fill="#094160" transform="translate(411.5625,246.75)"/>
<path d="M0 0 C0.66 0 1.32 0 2 0 C0.35433477 5.68502535 -2.29032784 10.76681636 -5 16 C-5.66 16 -6.32 16 -7 16 C-7.061875 16.66 -7.12375 17.32 -7.1875 18 C-8.12426222 21.45881436 -9.66784219 23.80182401 -11.62109375 26.7734375 C-13.03753935 29.06061594 -14.17214943 31.37717506 -15.3125 33.8125 C-18.16492839 39.65361929 -21.75532193 45.07130096 -26 50 C-26.66 50 -27.32 50 -28 50 C-28.26683594 50.58394531 -28.53367187 51.16789062 -28.80859375 51.76953125 C-32.6846504 59.02601764 -39.88181338 65.61699263 -46 71 C-46.66 71 -47.32 71 -48 71 C-48.495 72.485 -48.495 72.485 -49 74 C-51.43359375 76.04296875 -51.43359375 76.04296875 -54.4375 78.1875 C-55.42621094 78.90292969 -56.41492188 79.61835938 -57.43359375 80.35546875 C-60 82 -60 82 -62 82 C-62.495 83.485 -62.495 83.485 -63 85 C-63.66 85 -64.32 85 -65 85 C-65.495 86.485 -65.495 86.485 -66 88 C-67.6796875 89.359375 -67.6796875 89.359375 -69.875 90.75 C-70.69484375 91.27464844 -71.5146875 91.79929687 -72.359375 92.33984375 C-73.23078125 92.88769531 -74.1021875 93.43554688 -75 94 C-75.83015625 94.53753906 -76.6603125 95.07507813 -77.515625 95.62890625 C-80.32885687 97.4440304 -83.15989985 99.22719863 -86 101 C-86.55961426 101.3496582 -87.11922852 101.69931641 -87.69580078 102.05957031 C-97.19070092 107.96159397 -106.8850397 113.23791671 -117 118 C-117.73057617 118.34401855 -118.46115234 118.68803711 -119.21386719 119.04248047 C-121.4067448 120.06458444 -123.60713402 121.06766225 -125.8125 122.0625 C-126.48853271 122.37396973 -127.16456543 122.68543945 -127.86108398 123.00634766 C-132.64896873 125.11701042 -132.64896873 125.11701042 -136 124 C-134.7934375 123.46826172 -134.7934375 123.46826172 -133.5625 122.92578125 C-125.10002378 119.09354147 -116.86992521 114.89887483 -108.6875 110.5 C-107.68654297 109.96673096 -106.68558594 109.43346191 -105.65429688 108.8840332 C-99.10204244 105.33020386 -93.02694474 101.37871178 -87 97 C-85.78416293 96.14613916 -84.56687922 95.29433162 -83.34765625 94.4453125 C-71.50198078 86.10692741 -60.50370323 76.97377488 -50 67 C-49.46584473 66.49452637 -48.93168945 65.98905273 -48.38134766 65.46826172 C-40.56076826 58.01488932 -33.70331328 50.17115892 -27.19628906 41.5546875 C-25.55170114 39.41739446 -23.80137797 37.37339241 -22.0625 35.3125 C-13.44323044 24.57839935 -6.27010732 12.23770946 0 0 Z " fill="#EFF3F4" transform="translate(538,426)"/>
<path d="M0 0 C50.31651815 -0.62352066 50.31651815 -0.62352066 70 3 C71.32666746 3.21969083 72.65348107 3.43850171 73.98046875 3.65625 C113.40073173 10.7544324 152.51683274 27.10530454 184 52 C185.59692179 53.19176218 187.19384936 54.38351666 188.79101562 55.57495117 C195.23992053 60.42214853 201.17378761 65.69206273 207.02734375 71.23828125 C209.91333313 73.96111193 212.92951026 76.48778112 216 79 C215.67 79.66 215.34 80.32 215 81 C213.94425781 80.00033203 213.94425781 80.00033203 212.8671875 78.98046875 C205.78326549 72.34180099 198.42350185 66.22787487 190.71728516 60.32763672 C189.08011238 59.06193505 187.46533037 57.77283146 185.85546875 56.47265625 C152.77824375 30.13569597 111.82387054 13.99744154 70.625 5.875 C69.83633545 5.71628418 69.0476709 5.55756836 68.23510742 5.39404297 C52.19407437 2.3488244 36.15787905 1.6453955 19.875 1.375 C17.93357886 1.33668461 15.99217225 1.29762586 14.05078125 1.2578125 C9.36730986 1.16334384 4.68376013 1.07879941 0 1 C0 0.67 0 0.34 0 0 Z " fill="#CCD8DE" transform="translate(277,29)"/>
<path d="M0 0 C0.495 1.485 0.495 1.485 1 3 C-0.3125 5.1875 -0.3125 5.1875 -2 7 C-2.66 7 -3.32 7 -4 7 C-4.33 7.99 -4.66 8.98 -5 10 C-5.66 10 -6.32 10 -7 10 C-7.33 10.99 -7.66 11.98 -8 13 C-9.6796875 14.359375 -9.6796875 14.359375 -11.875 15.75 C-12.69484375 16.27464844 -13.5146875 16.79929687 -14.359375 17.33984375 C-15.23078125 17.88769531 -16.1021875 18.43554688 -17 19 C-17.83015625 19.53753906 -18.6603125 20.07507813 -19.515625 20.62890625 C-22.32885687 22.4440304 -25.15989985 24.22719863 -28 26 C-28.55961426 26.3496582 -29.11922852 26.69931641 -29.69580078 27.05957031 C-39.19070092 32.96159397 -48.8850397 38.23791671 -59 43 C-59.73057617 43.34401855 -60.46115234 43.68803711 -61.21386719 44.04248047 C-63.4067448 45.06458444 -65.60713402 46.06766225 -67.8125 47.0625 C-68.82654907 47.52970459 -68.82654907 47.52970459 -69.86108398 48.00634766 C-74.64896873 50.11701042 -74.64896873 50.11701042 -78 49 C-76.7934375 48.46826172 -76.7934375 48.46826172 -75.5625 47.92578125 C-67.10002378 44.09354147 -58.86992521 39.89887483 -50.6875 35.5 C-49.68654297 34.96673096 -48.68558594 34.43346191 -47.65429688 33.8840332 C-41.10204244 30.33020386 -35.02694474 26.37871178 -29 22 C-27.78416293 21.14613916 -26.56687922 20.29433162 -25.34765625 19.4453125 C-18.78954491 14.8266367 -12.45756116 10.06248663 -6.3046875 4.91015625 C-4.24665109 3.20442777 -2.15332441 1.58274306 0 0 Z " fill="#E4EAEE" transform="translate(480,501)"/>
<path d="M0 0 C-3.49274589 2.32849726 -5.60337673 2.47822211 -9.75 2.9375 C-15.34038574 3.60440143 -20.85371682 4.45837744 -26.375 5.5625 C-27.62023437 5.81128906 -28.86546875 6.06007813 -30.1484375 6.31640625 C-32.88362671 6.70936574 -32.88362671 6.70936574 -34 8 C-35.82173159 8.27763787 -37.64438407 8.55014185 -39.47045898 8.79760742 C-55.53732891 11.04358601 -70.27611396 16.95850117 -84.99780273 23.59838867 C-85.74231689 23.92685791 -86.48683105 24.25532715 -87.25390625 24.59375 C-87.90689697 24.88958984 -88.5598877 25.18542969 -89.23266602 25.49023438 C-91 26 -91 26 -94 25 C-82.645667 19.34003704 -71.07236703 14.88794223 -59 11 C-58.17258301 10.73300293 -57.34516602 10.46600586 -56.49267578 10.19091797 C-45.75784548 6.78955424 -34.93607033 4.23093466 -23.875 2.125 C-22.76116943 1.90956543 -21.64733887 1.69413086 -20.49975586 1.47216797 C-13.59384583 0.22275878 -7.01394185 -0.26821622 0 0 Z " fill="#C4D2D9" transform="translate(276,30)"/>
<path d="M0 0 C3.75175432 4.60639848 5.34103379 9.76918617 7.3125 15.3125 C7.70912842 16.42753906 8.10575684 17.54257813 8.5144043 18.69140625 C15.77608956 39.51226099 22.68955167 62.74869816 22 85 C21.34 84.67 20.68 84.34 20 84 C19.54878143 81.33692569 19.20409072 78.74463442 18.9375 76.0625 C18.57286522 70.87406669 18.57286522 70.87406669 17 66 C16.70106521 64.15015603 16.43621973 62.29476229 16.1875 60.4375 C14.39684468 48.51722514 11.37422308 36.93629976 8 25.375 C7.76313477 24.54605225 7.52626953 23.71710449 7.28222656 22.86303711 C6.13832401 19.04524293 4.91762525 15.64645863 2.859375 12.22265625 C1.11689943 9.2026093 0.45989749 7.47333417 0.25 4.0625 C0.19328125 3.29035156 0.1365625 2.51820313 0.078125 1.72265625 C0.05234375 1.15417969 0.0265625 0.58570313 0 0 Z " fill="#B0C2CC" transform="translate(548,191)"/>
<path d="M0 0 C0.33 0 0.66 0 1 0 C1 24.42 1 48.84 1 74 C0.67 74 0.34 74 0 74 C-3.93561796 48.85789692 -3.35005415 25.17292461 0 0 Z " fill="#8FA8B6" transform="translate(31,263)"/>
<path d="M0 0 C0.495 0.99 0.495 0.99 1 2 C-5.27157676 8.24424704 -12.25996955 12.11420684 -20.125 16.0625 C-21.335466 16.6781139 -22.54575169 17.29408246 -23.75585938 17.91040039 C-42.20899702 27.26081891 -42.20899702 27.26081891 -48 29 C-48.99 28.67 -49.98 28.34 -51 28 C-49.7934375 27.46826172 -49.7934375 27.46826172 -48.5625 26.92578125 C-40.10002378 23.09354147 -31.86992521 18.89887483 -23.6875 14.5 C-22.18606445 13.70009644 -22.18606445 13.70009644 -20.65429688 12.8840332 C-14.82072508 9.72000488 -9.34641396 6.29571794 -3.97192383 2.40039062 C-2 1 -2 1 0 0 Z " fill="#DDE5E9" transform="translate(453,522)"/>
<path d="M0 0 C4.07480649 1.417324 7.08770983 3.37516141 10.5 6 C11.01699463 6.39662842 11.53398926 6.79325684 12.06665039 7.2019043 C13.16078213 8.04186208 14.25328348 8.8839474 15.34423828 9.72802734 C16.95628322 10.96641633 18.58249305 12.18307927 20.21484375 13.39453125 C27.21267612 18.62352904 33.68685978 24.23070077 40.02734375 30.23828125 C42.91333313 32.96111193 45.92951026 35.48778112 49 38 C48.505 38.99 48.505 38.99 48 40 C47.29617188 39.33355469 46.59234375 38.66710937 45.8671875 37.98046875 C38.79659448 31.35429219 31.45138776 25.24546806 23.76123047 19.35400391 C22.00041485 18.00031893 20.25102663 16.63301935 18.50390625 15.26171875 C13.87706516 11.64462274 9.30513884 8.07579451 4.25 5.0625 C1 3 1 3 0 0 Z " fill="#BFCED5" transform="translate(444,70)"/>
<path d="M0 0 C0.33 0.99 0.66 1.98 1 3 C1.66 3 2.32 3 3 3 C3.67718814 6.99829165 4.33983508 10.99886532 5 15 C5.28617188 16.68802734 5.28617188 16.68802734 5.578125 18.41015625 C6.55192353 24.357283 7.2363225 29.97377623 7 36 C6.34 35.67 5.68 35.34 5 35 C4.54878143 32.33692569 4.20409072 29.74463442 3.9375 27.0625 C3.57286522 21.87406669 3.57286522 21.87406669 2 17 C1.60684921 14.1245468 1.25350975 11.25888154 0.9375 8.375 C0.84662109 7.57320312 0.75574219 6.77140625 0.66210938 5.9453125 C0.43802347 3.96392132 0.2185725 1.98200695 0 0 Z " fill="#A0B5C1" transform="translate(563,240)"/>
<path d="M0 0 C0.66 0 1.32 0 2 0 C0.35433477 5.68502535 -2.29032784 10.76681636 -5 16 C-5.66 16 -6.32 16 -7 16 C-7.0825 16.7425 -7.165 17.485 -7.25 18.25 C-8.1396946 21.51221354 -9.48503749 22.80954878 -12 25 C-12.66 24.67 -13.32 24.34 -14 24 C-13.40832031 23.02160156 -12.81664062 22.04320312 -12.20703125 21.03515625 C-8.01626568 14.08835749 -3.8520248 7.14269924 0 0 Z " fill="#D2DCE2" transform="translate(538,426)"/>
<path d="M0 0 C0.99 0.495 0.99 0.495 2 1 C3.26761762 5.29581527 4 8.50944298 4 13 C4.66 13 5.32 13 6 13 C6.20496094 13.92683594 6.40992188 14.85367187 6.62109375 15.80859375 C6.89050781 17.00613281 7.15992188 18.20367187 7.4375 19.4375 C7.70433594 20.63246094 7.97117187 21.82742188 8.24609375 23.05859375 C8.70066748 25.8704686 8.70066748 25.8704686 10 27 C10.04080783 28.99958364 10.04254356 31.00045254 10 33 C7.54937268 30.06605452 6.4153906 27.63720367 5.5 23.9375 C5.25507812 22.97199219 5.01015625 22.00648438 4.7578125 21.01171875 C4.50773437 20.01785156 4.25765625 19.02398437 4 18 C3.46096918 16.08259038 2.91937929 14.16589798 2.375 12.25 C1.2554509 8.16452503 0.46753004 4.20777039 0 0 Z " fill="#A0B5C1" transform="translate(36,361)"/>
<path d="M0 0 C-1.50463625 4.02423424 -3.85054292 5.52065616 -7.4375 7.75 C-8.88962891 8.67039062 -8.88962891 8.67039062 -10.37109375 9.609375 C-13 11 -13 11 -16 11 C-14.625 9.5 -14.625 9.5 -13 8 C-12.34 8 -11.68 8 -11 8 C-11 7.01 -11 6.02 -11 5 C-4.38235294 0 -4.38235294 0 0 0 Z " fill="#E7ECEF" transform="translate(465,516)"/>
<path d="M0 0 C0.66 0.33 1.32 0.66 2 1 C-3.94 6.94 -9.88 12.88 -16 19 C-16.66 18.67 -17.32 18.34 -18 18 C-6.66287016 5.33029613 -6.66287016 5.33029613 0 0 Z " fill="#D5F8F4" transform="translate(335,214)"/>
<path d="M0 0 C0.33 0 0.66 0 1 0 C1.2137731 7.68395543 1.01670288 14.56340812 -1 22 C-1.99 21.67 -2.98 21.34 -4 21 C-2.68 14.07 -1.36 7.14 0 0 Z " fill="#90A9B7" transform="translate(35,240)"/>
<path d="M0 0 C3.53679481 4.07170508 5.92585105 8.33424946 8.3125 13.125 C8.8703418 14.19814453 8.8703418 14.19814453 9.43945312 15.29296875 C10.37469785 17.15649175 11.19599595 19.07620735 12 21 C11.67 21.99 11.34 22.98 11 24 C9.15285269 20.75766696 7.3247599 17.50497713 5.5 14.25 C4.97535156 13.32960937 4.45070313 12.40921875 3.91015625 11.4609375 C3.41386719 10.57148438 2.91757812 9.68203125 2.40625 8.765625 C1.94541016 7.94868164 1.48457031 7.13173828 1.00976562 6.29003906 C0 4 0 4 0 0 Z " fill="#C2D0D7" transform="translate(536,167)"/>
<path d="M0 0 C0.66 0.33 1.32 0.66 2 1 C-0.68077407 4.27212129 -4.19986853 5.64584614 -8 7.25 C-8.6290625 7.53101563 -9.258125 7.81203125 -9.90625 8.1015625 C-14.630218 10.12326067 -14.630218 10.12326067 -18 9 C-16.95199219 8.51789062 -15.90398437 8.03578125 -14.82421875 7.5390625 C-13.44525174 6.901173 -12.06634883 6.26314491 -10.6875 5.625 C-9.65206055 5.14933594 -9.65206055 5.14933594 -8.59570312 4.6640625 C-5.57233933 3.26192277 -2.77843695 1.8522913 0 0 Z " fill="#D7E0E5" transform="translate(420,541)"/>
<path d="M0 0 C1.08557892 3.25995807 0.91310151 5.10542427 -0.21484375 8.328125 C-0.48876953 9.12734375 -0.76269531 9.9265625 -1.04492188 10.75 C-1.48674805 11.9875 -1.48674805 11.9875 -1.9375 13.25 C-2.22818359 14.09046875 -2.51886719 14.9309375 -2.81835938 15.796875 C-3.53621233 17.86805731 -4.26366119 19.93533262 -5 22 C-6.89588506 16.31234481 -4.30538912 9.27810721 -2.12890625 3.8125 C-1.4754685 2.5118775 -0.7488697 1.24811616 0 0 Z " fill="#B8C9D1" transform="translate(560,372)"/>
<path d="M0 0 C0.33 0.66 0.66 1.32 1 2 C0.1796875 4.06640625 0.1796875 4.06640625 -1.125 6.5625 C-1.58519531 7.44808594 -2.04539062 8.33367187 -2.51953125 9.24609375 C-4.6384994 13.18770996 -6.79087246 17.10817531 -9 21 C-9.33 20.34 -9.66 19.68 -10 19 C-8.80407001 16.28627245 -7.55273934 13.68902645 -6.1875 11.0625 C-5.81818359 10.33353516 -5.44886719 9.60457031 -5.06835938 8.85351562 C-3.49624101 5.77419581 -1.92201329 2.88301994 0 0 Z " fill="#B4C5CE" transform="translate(65,164)"/>
<path d="M0 0 C6.12892523 0.32257501 11.19327716 3.36101209 16 7 C16.33 7.99 16.66 8.98 17 10 C12.97683781 8.51463956 9.38707358 6.60123107 5.6875 4.4375 C4.61886719 3.81746094 3.55023438 3.19742188 2.44921875 2.55859375 C1.64097656 2.04425781 0.83273437 1.52992187 0 1 C0 0.67 0 0.34 0 0 Z " fill="#C5D2D9" transform="translate(428,62)"/>
<path d="M0 0 C0.33 0.66 0.66 1.32 1 2 C-3.46153846 8.92307692 -3.46153846 8.92307692 -6 11 C-6.66 11 -7.32 11 -8 11 C-8.33 11.99 -8.66 12.98 -9 14 C-9 9.25852179 -7.90322818 7.64977257 -5 4 C-4.01 4 -3.02 4 -2 4 C-1.34 2.68 -0.68 1.36 0 0 Z " fill="#E3E9ED" transform="translate(528,447)"/>
<path d="M0 0 C0.66 0.33 1.32 0.66 2 1 C0.38113585 2.67262717 -1.2452729 4.33795537 -2.875 6 C-3.77992188 6.928125 -4.68484375 7.85625 -5.6171875 8.8125 C-8 11 -8 11 -10 11 C-8.55218207 7.55571735 -6.72305391 5.63869038 -3.875 3.25 C-3.15054687 2.63640625 -2.42609375 2.0228125 -1.6796875 1.390625 C-0.84824219 0.70226562 -0.84824219 0.70226562 0 0 Z " fill="#CFDAE0" transform="translate(399,276)"/>
<path d="M0 0 C4.66666667 4 9.33333333 8 14 12 C13.67 12.66 13.34 13.32 13 14 C11.01436365 12.23598822 9.03656344 10.46438117 7.0625 8.6875 C6.49853516 8.18798828 5.93457031 7.68847656 5.35351562 7.17382812 C1.11328125 3.33984375 1.11328125 3.33984375 0 0 Z " fill="#DFE6EA" transform="translate(479,96)"/>
<path d="M0 0 C0.61328125 1.796875 0.61328125 1.796875 1 4 C-0.8125 7.25 -0.8125 7.25 -3 10 C-3.66 10 -4.32 10 -5 10 C-5 10.99 -5 11.98 -5 13 C-5.66 13 -6.32 13 -7 13 C-5.35821735 8.22390502 -2.73453298 4.20617096 0 0 Z " fill="#99B0BD" transform="translate(73,151)"/>
<path d="M0 0 C2 2 2 2 2.1953125 5.4765625 C2.18201493 6.85950968 2.15816232 8.24238654 2.125 9.625 C2.11597656 10.33140625 2.10695312 11.0378125 2.09765625 11.765625 C2.07407603 13.51056098 2.03820461 15.25532295 2 17 C1.67 17 1.34 17 1 17 C0.63724344 14.73052303 0.28506814 12.45935265 -0.0625 10.1875 C-0.25972656 8.92292969 -0.45695312 7.65835937 -0.66015625 6.35546875 C-1 3 -1 3 0 0 Z " fill="#AFC1CB" transform="translate(30,320)"/>
<path d="M0 0 C4.84981776 -0.34641555 7.8693377 0.40632832 12 3 C12.33 3.99 12.66 4.98 13 6 C8.52761347 4.58192622 4.28853694 2.88695626 0 1 C0 0.67 0 0.34 0 0 Z " fill="#B3C4CE" transform="translate(400,49)"/>
<path d="M0 0 C4.67105792 1.55701931 8.08705685 4.08447373 12 7 C9 8 9 8 6.9921875 7.109375 C6.29351562 6.66078125 5.59484375 6.2121875 4.875 5.75 C4.17117188 5.31171875 3.46734375 4.8734375 2.7421875 4.421875 C1 3 1 3 0 0 Z " fill="#DCE4E8" transform="translate(444,70)"/>
<path d="M0 0 C3.8373228 2.49872182 7.45960866 5.0843836 11 8 C10.67 8.99 10.34 9.98 10 11 C8.32742645 9.5484451 6.66208242 8.08855591 5 6.625 C3.6078125 5.40683594 3.6078125 5.40683594 2.1875 4.1640625 C1.465625 3.44992188 0.74375 2.73578125 0 2 C0 1.34 0 0.68 0 0 Z " fill="#CDD9DF" transform="translate(468,87)"/>
<path d="M0 0 C-1.39332574 3.36720387 -2.9789286 4.9859524 -6 7 C-6.66 6.67 -7.32 6.34 -8 6 C-4.76923077 0 -4.76923077 0 0 0 Z " fill="#F9FAFB" transform="translate(465,516)"/>
<path d="M0 0 C0.66 0 1.32 0 2 0 C0.78065514 4.03321763 -0.55954927 7.54269479 -3 11 C-3.66 11 -4.32 11 -5 11 C-3.55049545 7.2089881 -1.84827434 3.6125362 0 0 Z " fill="#C8D5DB" transform="translate(538,426)"/>
<path d="M0 0 C0.66 0 1.32 0 2 0 C4.03993514 4.92984325 5.40652968 8.57960425 5 14 C2.42924159 10.98552165 1.47792934 8.64020229 0.8125 4.75 C0.65394531 3.85796875 0.49539062 2.9659375 0.33203125 2.046875 C0.22246094 1.37140625 0.11289062 0.6959375 0 0 Z " fill="#B5C6CF" transform="translate(41,380)"/>
<path d="M0 0 C4.60853797 0.72008406 8.67237409 2.31295939 13 4 C9.75784173 5.08557659 7.97678191 4.94015194 4.8125 3.6875 C3.77029297 3.29111328 3.77029297 3.29111328 2.70703125 2.88671875 C1 2 1 2 0 0 Z " fill="#DCE4E8" transform="translate(390,44)"/>
<path d="M0 0 C2.5 1.75 2.5 1.75 5 4 C5 5.32 5 6.64 5 8 C5.66 8.33 6.32 8.66 7 9 C6.01 9 5.02 9 4 9 C0 3.85714286 0 3.85714286 0 0 Z " fill="#A1B6C2" transform="translate(62,429)"/>
<path d="M0 0 C2.61500768 2.36595933 4.38999603 4.86049226 6 8 C5.67 8.66 5.34 9.32 5 10 C4.67 9.01 4.34 8.02 4 7 C3.34 7 2.68 7 2 7 C0 4 0 4 0 0 Z " fill="#BCCBD3" transform="translate(530,157)"/>
<path d="M0 0 C0.99 0.33 1.98 0.66 3 1 C1.68 1.99 0.36 2.98 -1 4 C-0.67 2.68 -0.34 1.36 0 0 Z M-4 6 C-3.67 6.66 -3.34 7.32 -3 8 C-3.66 7.67 -4.32 7.34 -5 7 C-4.67 6.67 -4.34 6.34 -4 6 Z " fill="#EEF2F4" transform="translate(494,487)"/>
<path d="" fill="#FFFFFF" transform="translate(0,0)"/>
</svg>
